<svg width="202" height="50" viewBox="0 0 202 50" fill="none" xmlns="http://www.w3.org/2000/svg">
<path d="M25.189 39.7857L23.9942 38.5575C21.0406 35.5273 17.409 33.2417 13.3981 31.8949L11.7719 31.3496C13.199 25.0522 16.0104 20.3813 19.3054 17.3037C22.7094 14.1218 26.635 12.6423 30.0912 12.8225C31.7126 12.9031 33.1586 13.8135 33.9361 15.2409C37.2027 21.2159 35.4675 31.6199 25.189 39.7857Z" fill="#007FE8"/>
<path d="M22.937 37.5332C22.0694 36.7365 21.1544 36.0015 20.1967 35.3329C27.4457 30.6288 29.9679 23.8904 31.1674 13.0027C32.3384 13.3441 33.3387 14.136 33.9409 15.2409C34.0309 15.4021 34.1163 15.5728 34.1969 15.7436C32.9358 26.361 30.295 32.9334 22.937 37.5332Z" fill="#28438F"/>
<path d="M25.189 39.7857L23.9942 38.5575C23.6481 38.2066 23.2973 37.8604 22.937 37.5332C30.295 32.9334 32.9358 26.361 34.1969 15.7436C37.1078 21.7849 35.1925 31.8428 25.189 39.7857Z" fill="#213775"/>
<path d="M11.7719 31.3448L0.521506 29.4006L4.11519 23.6865C6.09693 20.533 9.40615 18.4465 13.1041 18.015L19.3054 17.2989C16.0104 20.3765 13.199 25.0474 11.7719 31.3448Z" fill="#FF7F00"/>
<path d="M0.521506 29.4054L10.4112 27.4896C11.7245 23.5964 13.7774 20.367 16.3849 17.6404L19.3054 17.3037C16.0104 20.3813 13.199 25.0522 11.7719 31.3496L0.521506 29.4054Z" fill="#FFA245"/>
<path d="M25.2079 39.7952L31.8358 49.0943L35.4295 43.3801C37.4113 40.2267 37.8569 36.3382 36.6432 32.8196L34.5998 26.9205C33.2581 31.2263 30.2666 35.7834 25.2127 39.7999L25.2079 39.7952Z" fill="#FF7F00"/>
<path d="M31.8358 49.0895L29.271 39.3447C32.2104 36.471 34.2301 33.2227 35.5575 29.6899L34.5951 26.911C33.2534 31.2168 30.2618 35.7739 25.2079 39.7904L31.8358 49.0895Z" fill="#FFA245"/>
<path d="M23.3684 43.7453L21.7802 42.261L20.832 41.3742C18.3335 39.0412 15.413 37.206 12.227 35.9778L9.06954 34.7544L11.2504 32.3122L12.0327 32.573L12.8339 32.8433C16.859 34.1948 20.5048 36.4852 23.4632 39.5248L24.6295 40.7198L23.3731 43.7453H23.3684Z" fill="#FF7F00"/>
<path d="M23.3684 43.7453L21.7802 42.261L22.2969 40.1698L12.0279 32.573L12.8292 32.8433C16.8543 34.1948 20.5001 36.4852 23.4585 39.5248L24.6248 40.7198L23.3684 43.7453Z" fill="#FFA245"/>
<path d="M21.4436 31.9992C17.7598 29.6851 16.5082 24.9384 18.6606 21.3249C21.8228 16.0186 26.6065 13.5622 30.6506 13.8278C31.9733 13.9131 33.1728 14.6671 33.8223 15.8242C35.8135 19.3522 35.6808 24.7297 32.2673 29.8796C29.9442 33.3887 25.1273 34.3181 21.4436 31.9992Z" fill="#213775"/>
<path d="M21.8513 30.9465C18.2671 28.694 17.0486 24.0753 19.1442 20.5567C22.2211 15.3879 26.8815 12.9979 30.8118 13.2587C32.1013 13.3441 33.2629 14.0743 33.8982 15.1982C35.8373 18.6314 35.7045 23.8667 32.3858 28.879C30.1243 32.2932 25.4355 33.199 21.8513 30.9418V30.9465Z" fill="white"/>
<path d="M32.1535 29.026C31.3712 30.2068 30.2855 31.0698 29.0624 31.5772C29.0624 31.5772 29.0529 31.5867 29.0434 31.5867C27.403 32.2648 25.5161 32.3122 23.7904 31.6531C23.3589 31.4871 22.937 31.2737 22.5293 31.0176C22.4344 30.956 22.3396 30.8944 22.2495 30.8327C22.1784 30.7853 22.1073 30.7284 22.0362 30.6762C19.1774 28.5328 18.3098 24.5637 20.1493 21.4767C23.0034 16.6967 27.2703 14.4537 30.8545 14.6576C30.954 14.6624 31.0536 14.6718 31.1531 14.6861C31.2432 14.7003 31.3333 14.7193 31.4186 14.7382C31.6035 14.7809 31.7884 14.8378 31.9638 14.909C32.2388 15.0228 32.4996 15.1698 32.7366 15.35C33.1064 15.6297 33.4193 15.9949 33.6564 16.4122C34.1115 17.2326 34.4387 18.1667 34.6093 19.1815C35.1119 22.0552 34.4244 25.5833 32.1582 29.0165L32.1535 29.026Z" fill="#FF7F00"/>
<path d="M31.7458 29.1066C31.0394 30.1688 30.1149 30.9987 29.0624 31.5772C29.0624 31.5772 29.0529 31.5867 29.0434 31.5867C27.403 32.2648 25.5161 32.3122 23.7904 31.6531C23.3589 31.4871 22.937 31.2737 22.5293 31.0176C22.4344 30.956 22.3396 30.8944 22.2495 30.8327C22.1784 30.7853 22.1073 30.7284 22.0362 30.6762C31.4803 27.1387 31.5324 18.2189 31.1484 14.6861C31.2385 14.7003 31.3286 14.7193 31.4139 14.7382C31.5988 14.7809 31.7837 14.8378 31.9591 14.9089C32.2341 15.0228 32.4949 15.1698 32.7319 15.35C33.1017 15.6297 33.4146 15.9949 33.6516 16.4122C34.1068 17.2326 34.4339 18.1667 34.6046 19.1815C34.8511 22.1737 34.0025 25.6781 31.741 29.0971L31.7458 29.1066Z" fill="#FF8C19"/>
<path d="M32.1535 29.026C31.3712 30.2068 30.2855 31.0698 29.0624 31.5772C29.0624 31.5772 29.0529 31.5867 29.0434 31.5867C27.403 32.2648 25.5161 32.3122 23.7904 31.6531C33.4383 27.9543 33.1444 18.5888 32.7319 15.3594C33.1017 15.6392 33.4146 16.0044 33.6516 16.4217C34.1068 17.242 34.4339 18.1762 34.6046 19.191C35.1071 22.0647 34.4197 25.5928 32.1535 29.026Z" fill="#FF8F00"/>
<path d="M25.6251 23.236L24.3877 22.1263L25.1036 21.3297L26.7108 22.7665C27.1233 23.1364 27.4883 23.364 27.8012 23.4494C28.1094 23.5347 28.4128 23.4778 28.702 23.2834L25.7389 20.6278L26.469 19.8122L29.4322 22.4678C29.5791 22.1643 29.5933 21.8513 29.4748 21.5288C29.361 21.2016 29.105 20.865 28.7068 20.5093L26.9621 18.9444L27.6922 18.143L32.4901 22.444L31.7647 23.2502L30.7644 22.3539C30.7644 22.7381 30.6696 23.089 30.4704 23.4067L31.1105 23.9805L30.3804 24.7961L29.7403 24.2223C29.3184 24.5495 28.849 24.706 28.3275 24.687C27.806 24.6681 27.3035 24.5068 26.8199 24.1986L26.2604 27.9306L25.0941 26.8873L25.6251 23.236Z" fill="white"/>
<path d="M13.7394 39.0364C10.2501 42.0761 5.5849 44.21 0.962423 44.2432H0C0.327129 44.1721 1.09517 44.0061 1.40333 43.9397C1.69728 43.8591 2.45584 43.6172 2.75926 43.5224C3.32344 43.2948 3.94451 43.0671 4.48499 42.7826C6.91238 41.5876 9.08377 39.8473 10.8237 37.7656L11.44 38.0074C12.2223 38.3061 12.9904 38.6523 13.7394 39.0317V39.0364Z" fill="#FF7F00"/>
<path d="M16.7879 40.8716C14.1187 43.5508 10.7763 45.7085 7.04039 46.4008C9.61949 45.1442 11.6676 43.0814 13.2843 40.7578C13.6019 40.2883 13.9243 39.7951 14.2088 39.2972C14.7398 39.577 15.2566 39.8805 15.7638 40.1982C16.1099 40.4164 16.4465 40.6392 16.7832 40.8763L16.7879 40.8716Z" fill="#FF7F00"/>
<path d="M19.5756 43.1857C17.1103 46.856 13.0899 49.6918 8.60018 49.6491C12.5731 48.7766 15.5742 45.6041 16.9918 41.9196C17.0818 41.692 17.1672 41.4596 17.2478 41.2225C17.9779 41.7631 18.6796 42.3511 19.3433 42.9676L19.5756 43.1857Z" fill="#FF7F00"/>
<path d="M43.475 25.0616C41.0713 25.4552 40.2843 27.0438 40.18 29.1256C39.9809 29.1445 40.0093 29.0212 39.9809 28.9406C39.8339 28.4854 39.7059 28.0254 39.5447 27.5749C39.137 26.4416 38.2931 25.8251 37.1363 25.5975C36.9229 25.5548 36.7096 25.5027 36.501 25.4505C36.4773 25.4458 36.4631 25.4173 36.4157 25.3746C37.269 24.9668 38.2647 24.8008 38.8336 23.933C39.3788 23.1032 39.4262 22.1358 39.6064 21.2064C39.7676 21.1874 39.7533 21.306 39.7818 21.3866C39.9287 21.856 40.0662 22.3255 40.2274 22.7902C40.6209 23.9093 41.4411 24.5305 42.5837 24.7724C42.8397 24.8245 43.1147 24.8483 43.4845 25.0616H43.475Z" fill="#FFD700"/>
<path d="M19.6372 15.4875C19.2959 13.8372 18.471 12.7466 16.6883 12.6043C17.4042 12.206 18.2102 12.059 18.6606 11.3572C19.0825 10.7028 19.1063 9.92507 19.3196 9.16161C19.6657 10.8498 20.4337 12.0922 22.387 12.2344C20.5238 12.5616 19.8127 13.7661 19.642 15.4875H19.6372Z" fill="#FFD700"/>
<path d="M4.75048 34.0857C5.02546 35.2807 5.53749 36.2291 6.9835 36.3192C5.59912 36.599 5.15821 37.5664 5.00175 38.7709C4.75522 38.254 4.66515 37.7087 4.30957 37.2724C3.93029 36.8077 3.37085 36.7602 2.80667 36.5706C3.30448 36.2386 3.92081 36.2102 4.23846 35.7028C4.54188 35.2143 4.59403 34.6548 4.74574 34.081L4.75048 34.0857Z" fill="#FFD700"/>
<path d="M19.0968 47.9372C20.448 47.6717 20.8699 46.747 20.9695 45.5188C21.2966 46.6616 21.766 47.61 23.1693 47.6954C21.8797 47.9515 21.3772 48.805 21.2255 50C20.9173 48.8951 20.4385 48.0273 19.0968 47.9372Z" fill="#FFD700"/>
<path d="M6.38139 18.4844C5.60386 18.6599 5.31466 19.1815 5.15347 19.8881C4.93538 19.2289 4.63196 18.6931 3.79754 18.6504C4.57981 18.4133 4.93064 17.9012 4.98279 17.1235C5.24355 17.8063 5.52327 18.4181 6.38139 18.4844Z" fill="#FFD700"/>
<path d="M42.8777 10.9019C42.9488 11.0205 42.944 11.1628 42.8777 11.2766L40.4408 15.1555L40.3791 15.0607L38.7625 12.6992C37.2359 10.4704 34.8511 8.97193 32.1819 8.56412L29.3563 8.12785L29.2473 8.10888L31.6841 4.2299C31.7552 4.11609 31.888 4.0497 32.0208 4.06392L34.8511 4.31525C37.5203 4.72781 39.905 6.22155 41.4316 8.4503L42.8871 10.8924L42.8777 10.9019Z" fill="#08188F"/>
<path d="M43.1431 12.0448L43.4134 11.618C43.6125 11.3003 43.6172 10.9019 43.4276 10.5747L41.9626 8.11362L41.9531 8.09465C41.1424 6.91388 40.1184 5.92754 38.9047 5.16407C37.691 4.40061 36.3588 3.90269 34.9459 3.68456H34.927L32.0776 3.42849C31.7031 3.39529 31.3475 3.57075 31.1437 3.89321L30.8924 4.29628L28.4318 0.559557L40.0947 3.07758L47.4195 12.5L43.1526 12.04L43.1431 12.0448Z" fill="#06178F"/>
<path d="M28.7732 0L28.4223 0.564296L40.0852 3.08232L47.41 12.5047L47.7609 11.9404L40.436 2.51802L28.7732 0Z" fill="#08188F"/>
<path d="M40.436 15.1555L40.327 15.1366L37.4966 14.7003C34.8274 14.2877 32.4427 12.794 30.9161 10.5653L29.2994 8.20371L29.2378 8.10887L29.3468 8.12785L32.1725 8.56411C34.8416 8.97667 37.2264 10.4704 38.753 12.6992L40.3697 15.0607L40.4313 15.1555H40.436Z" fill="#020562"/>
<path d="M47.1825 11.5669L43.7741 16.991L44.3481 17.3519L47.7565 11.9278L47.1825 11.5669Z" fill="#014C9C"/>
<path d="M43.3565 16.9765C43.2237 17.3606 43.4229 17.7826 43.8116 17.9201C44.1956 18.0577 44.6176 17.8538 44.7551 17.4649C44.8878 17.0808 44.6887 16.6588 44.2999 16.5212C43.9159 16.3885 43.494 16.5876 43.3565 16.9765Z" fill="#FFD700"/>
<path d="M44.4327 17.2468L43.8021 20.111C43.8021 20.111 42.048 19.8976 41.6071 18.6077L43.8448 16.8864L44.4374 17.2468H44.4327Z" fill="#FFD700"/>
<path d="M76.7901 38.9036H59.1393V11.0869H76.7521V16.9338H65.3358V22.2307H75.6901V27.684H65.3358V33.0188H76.7901V38.9036Z" fill="#030C69"/>
<path d="M100.519 11.0869V34.982C100.519 36.158 100.571 37.7561 100.675 38.9036H94.9481C94.8438 38.2777 94.7916 37.2155 94.7916 36.5895C94.3223 37.2676 93.6206 37.8272 92.6914 38.2587C91.7621 38.6903 90.7239 38.9084 89.5718 38.9084C86.7983 38.9084 84.4989 37.9458 82.6689 36.0252C80.8389 34.1047 79.9239 31.6483 79.9239 28.6703C79.9239 25.6923 80.8104 23.3166 82.593 21.3913C84.3709 19.4708 86.6324 18.5082 89.3774 18.5082C92.1225 18.5082 93.796 19.1768 94.6352 20.5093V11.0916H100.519V11.0869ZM87.206 25.1328C86.3574 25.9721 85.9307 27.1624 85.9307 28.7035C85.9307 30.2447 86.3574 31.4444 87.206 32.2933C88.0547 33.1421 89.093 33.5689 90.3256 33.5689C91.5583 33.5689 92.5918 33.1421 93.4452 32.2933C94.2938 31.4444 94.7205 30.2447 94.7205 28.7035C94.7205 27.1624 94.2938 25.9721 93.4452 25.1328C92.5966 24.2982 91.5535 23.8761 90.3256 23.8761C89.0977 23.8761 88.0547 24.2934 87.206 25.1328Z" fill="#030C69"/>
<path d="M118.449 38.9036C118.345 38.4342 118.293 37.3483 118.293 36.5089C117.823 37.2913 117.103 37.8888 116.136 38.2919C115.168 38.695 114.149 38.8989 113.078 38.8989C110.778 38.8989 108.967 38.1734 107.645 36.7223C106.322 35.2712 105.663 33.4598 105.663 31.2879V18.9681H111.627V30.0313C111.627 31.0271 111.897 31.838 112.433 32.464C112.969 33.0899 113.746 33.4076 114.766 33.4076C115.785 33.4076 116.548 33.0994 117.141 32.4877C117.729 31.8712 118.023 31.0698 118.023 30.074V18.9729H123.987V34.982C123.987 36.2623 124.053 37.8604 124.181 38.9036H118.449Z" fill="#030C69"/>
<path d="M148.417 19.4044L141.002 38.9036H135L126.997 19.4044H133.469L137.977 31.5298L142.135 19.4044H148.417Z" fill="#030C69"/>
<path d="M163.593 31.2879L168.576 32.7011C168.078 34.5078 167.045 35.992 165.475 37.1538C163.906 38.3156 161.943 38.8989 159.592 38.8989C156.766 38.8989 154.367 37.9552 152.395 36.0727C150.418 34.1901 149.432 31.6673 149.432 28.4996C149.432 25.3319 150.394 22.9941 152.314 21.0831C154.234 19.1768 156.52 18.2189 159.16 18.2189C162.195 18.2189 164.579 19.1009 166.319 20.8649C168.059 22.629 168.927 25.0806 168.927 28.2198C168.927 29.2157 168.889 29.8274 168.808 30.0645H155.235C155.287 31.1362 155.747 32.0324 156.61 32.7532C157.472 33.474 158.492 33.8344 159.668 33.8344C161.682 33.8344 162.986 32.9856 163.588 31.2832L163.593 31.2879ZM155.358 26.2282H163.166C163.114 25.3414 162.768 24.5685 162.128 23.9141C161.488 23.2597 160.526 22.9325 159.246 22.9325C158.094 22.9325 157.179 23.2739 156.501 23.952C155.818 24.6349 155.443 25.3888 155.363 26.2282H155.358Z" fill="#030C69"/>
<path d="M171.165 32.7817L176.223 31.8807C176.275 32.611 176.555 33.2322 177.067 33.7443C177.579 34.2565 178.314 34.5078 179.281 34.5078C180.011 34.5078 180.575 34.3465 180.969 34.0193C181.362 33.6921 181.557 33.2938 181.557 32.8244C181.557 32.0419 180.917 31.5061 179.637 31.2168L177.399 30.7047C175.412 30.2874 173.947 29.5476 173.004 28.4901C172.061 27.4327 171.591 26.1713 171.591 24.706C171.591 22.8993 172.302 21.3724 173.729 20.1157C175.156 18.8591 176.939 18.2331 179.082 18.2331C181.618 18.2331 183.52 18.8401 184.79 20.0588C186.056 21.2728 186.758 22.6005 186.89 24.0421L181.95 24.9431C181.87 24.2365 181.604 23.6627 181.144 23.217C180.684 22.7712 180.025 22.5484 179.163 22.5484C178.589 22.5484 178.091 22.7049 177.674 23.0178C177.257 23.3308 177.048 23.7386 177.048 24.2365C177.048 25.019 177.56 25.5074 178.579 25.6876L181.168 26.1997C183.131 26.5933 184.619 27.3378 185.639 28.438C186.658 29.5381 187.17 30.8327 187.17 32.3217C187.17 34.1284 186.492 35.6743 185.132 36.9689C183.771 38.2635 181.86 38.9131 179.404 38.9131C177.968 38.9131 176.693 38.7045 175.578 38.2872C174.464 37.8699 173.616 37.3245 173.028 36.6607C172.44 35.9968 171.994 35.3329 171.695 34.6785C171.392 34.0241 171.217 33.3981 171.165 32.7959V32.7817Z" fill="#030C69"/>
<path d="M198.193 13.3583V19.0488H202V24.265H198.193V31.563C198.193 32.9239 198.914 33.602 200.35 33.602C200.819 33.602 201.346 33.5357 201.919 33.4076V38.3536C201.189 38.7187 200.156 38.9036 198.819 38.9036C196.804 38.9036 195.216 38.3393 194.054 37.2155C192.888 36.0916 192.309 34.5599 192.309 32.6252V24.2697H188.858V19.0535H189.839C190.835 19.0535 191.584 18.7595 192.096 18.1715C192.608 17.5835 192.859 16.82 192.859 15.8763V13.363H198.193V13.3583Z" fill="#030C69"/>
</svg>
