<svg width="15" height="17" viewBox="0 0 15 17" fill="none" xmlns="http://www.w3.org/2000/svg">
<path d="M14.89 8.28009C9.81998 9.11009 8.16 12.4601 7.94 16.8501C7.52 16.8901 7.57999 16.6301 7.51999 16.4601C7.20999 15.5001 6.94001 14.5301 6.60001 13.5801C5.74001 11.1901 3.95999 9.89009 1.51999 9.41009C1.06999 9.32009 0.619993 9.21009 0.179993 9.10009C0.129993 9.09009 0.1 9.03009 0 8.94009C1.8 8.08009 3.90001 7.73008 5.10001 5.90008C6.25001 4.15008 6.35001 2.11008 6.73001 0.150081C7.07001 0.110081 7.04001 0.360086 7.10001 0.530086C7.41001 1.52009 7.70001 2.51009 8.04001 3.49009C8.87001 5.85009 10.6 7.16009 13.01 7.67009C13.55 7.78009 14.13 7.83009 14.91 8.28009H14.89Z" fill="#FCFDFD"/>
</svg>
